<?xml version="1.0" encoding="UTF-8" standalone="no"?>
<!-- Created with Inkscape (http://www.inkscape.org/) -->

<svg
   xmlns:dc="http://purl.org/dc/elements/1.1/"
   xmlns:cc="http://creativecommons.org/ns#"
   xmlns:rdf="http://www.w3.org/1999/02/22-rdf-syntax-ns#"
   xmlns:svg="http://www.w3.org/2000/svg"
   xmlns="http://www.w3.org/2000/svg"
   xmlns:sodipodi="http://sodipodi.sourceforge.net/DTD/sodipodi-0.dtd"
   xmlns:inkscape="http://www.inkscape.org/namespaces/inkscape"
   width="1657.2006"
   height="499.99994"
   viewBox="0 0 1657.2007 500.00001"
   id="svg2"
   version="1.1"
   inkscape:version="0.91 r13725"
   sodipodi:docname="tmlogoname.svg">
  <defs
     id="defs4" />
  <sodipodi:namedview
     id="base"
     pagecolor="#ffffff"
     bordercolor="#666666"
     borderopacity="1.0"
     inkscape:pageopacity="0.0"
     inkscape:pageshadow="2"
     inkscape:zoom="0.35355339"
     inkscape:cx="556.20812"
     inkscape:cy="236.33408"
     inkscape:document-units="px"
     inkscape:current-layer="layer1"
     showgrid="false"
     fit-margin-top="0"
     fit-margin-left="-1.9428903e-016"
     fit-margin-right="0"
     fit-margin-bottom="0"
     borderlayer="false"
     inkscape:showpageshadow="false"
     inkscape:window-width="1600"
     inkscape:window-height="837"
     inkscape:window-x="-8"
     inkscape:window-y="-8"
     inkscape:window-maximized="1"
     units="px"
     showguides="false" />
  <metadata
     id="metadata7">
    <rdf:RDF>
      <cc:Work
         rdf:about="">
        <dc:format>image/svg+xml</dc:format>
        <dc:type
           rdf:resource="http://purl.org/dc/dcmitype/StillImage" />
        <dc:title />
      </cc:Work>
    </rdf:RDF>
  </metadata>
  <g
     inkscape:label="Layer 1"
     inkscape:groupmode="layer"
     id="layer1"
     transform="translate(-276.1817,-430.31458)">
    <path
       style="opacity:0.98999999;fill:#aa1111;fill-opacity:1;stroke:none;stroke-width:25;stroke-linecap:round;stroke-linejoin:round;stroke-miterlimit:4;stroke-dasharray:none;stroke-opacity:1"
       d="m 526.18164,430.31458 a 250,250 0 0 0 -250,250 250,250 0 0 0 250,250 250,250 0 0 0 250,-250 250,250 0 0 0 -250,-250 z m 0,39.59765 A 210.40202,210.40202 0 0 1 736.58398,680.31458 210.40202,210.40202 0 0 1 526.18164,890.71692 210.40202,210.40202 0 0 1 315.7793,680.31458 210.40202,210.40202 0 0 1 526.18164,469.91223 Z"
       id="path4684"
       inkscape:connector-curvature="0" />
    <g
       style="font-style:normal;font-variant:normal;font-weight:bold;font-stretch:normal;font-size:225px;line-height:125%;font-family:sans-serif;-inkscape-font-specification:'sans-serif, Bold';text-align:start;letter-spacing:0px;word-spacing:0px;writing-mode:lr-tb;text-anchor:start;opacity:1;fill:#000000;fill-opacity:1;stroke:none;stroke-width:1px;stroke-linecap:butt;stroke-linejoin:miter;stroke-opacity:1"
       id="text4688">
      <path
         d="m 348.47778,598.30164 151.17188,0 0,31.97021 -54.38233,0 0,132.05566 -42.29736,0 0,-132.05566 -54.49219,0 0,-31.97021 z"
         style=""
         id="path4192" />
      <path
         d="m 521.40259,598.30164 53.83301,0 37.35351,87.78076 37.57324,-87.78076 53.72315,0 0,164.02587 -39.99024,0 0,-119.9707 -37.79297,88.43994 -26.80664,0 -37.79296,-88.43994 0,119.9707 -40.1001,0 0,-164.02587 z"
         style=""
         id="path4194" />
    </g>
    <g
       style="font-style:normal;font-variant:normal;font-weight:bold;font-stretch:normal;font-size:187.50001526px;line-height:125%;font-family:sans-serif;-inkscape-font-specification:'sans-serif, Bold';text-align:start;letter-spacing:0px;word-spacing:0px;writing-mode:lr-tb;text-anchor:start;opacity:0.96499999;fill:#000000;fill-opacity:1;stroke:none;stroke-width:1px;stroke-linecap:butt;stroke-linejoin:miter;stroke-opacity:1"
       id="text4136">
      <path
         d="m 802.98071,517.62621 125.97658,0 0,26.64185 -45.31861,0 0,110.04639 -35.24781,0 0,-110.04639 -45.41016,0 0,-26.64185 z"
         style=""
         id="path4142" />
      <path
         d="m 1001.284,579.69897 q -4.30303,-2.01416 -8.60601,-2.92969 -4.21142,-1.00708 -8.5144,-1.00708 -12.63428,0 -19.50074,8.14819 -6.7749,8.05665 -6.7749,23.16285 l 0,47.24121 -32.77588,0 0,-102.53907 32.77588,0 0,16.84571 q 6.31714,-10.0708 14.46533,-14.64844 8.23975,-4.66919 19.68384,-4.66919 1.64795,0 3.57056,0.1831 1.92261,0.0916 5.58472,0.54932 l 0.092,29.66309 z"
         style=""
         id="path4144" />
      <path
         d="m 1063.7229,608.17187 q -10.2539,0 -15.4724,3.47901 -5.1269,3.479 -5.1269,10.2539 0,6.22559 4.1198,9.79615 4.2115,3.479 11.6272,3.479 9.2469,0 15.564,-6.5918 6.3171,-6.68335 6.3171,-16.6626 l 0,-3.75366 -17.0288,0 z m 50.0794,-12.35962 0,58.5022 -33.0506,0 0,-15.19775 q -6.5918,9.33838 -14.8315,13.64136 -8.2398,4.21142 -20.0501,4.21142 -15.9301,0 -25.9094,-9.24682 -9.8877,-9.33838 -9.8877,-24.16993 0,-18.03589 12.3596,-26.45874 12.4512,-8.42285 39.0015,-8.42285 l 19.3176,0 0,-2.56348 q 0,-7.78198 -6.134,-11.35254 -6.134,-3.66211 -19.1345,-3.66211 -10.5286,0 -19.5923,2.10571 -9.0637,2.10572 -16.8457,6.31714 l 0,-24.9939 q 10.5285,-2.56347 21.1487,-3.84521 10.6201,-1.37329 21.2402,-1.37329 27.7405,0 40.0086,10.98633 12.3596,10.89477 12.3596,35.52246 z"
         style=""
         id="path4146" />
      <path
         d="m 1214.2356,566.79003 0,-54.93164 32.959,0 0,142.45606 -32.959,0 0,-14.83154 q -6.7749,9.06372 -14.9231,13.27515 -8.1482,4.21142 -18.8598,4.21142 -18.9514,0 -31.128,-15.01465 -12.1765,-15.1062 -12.1765,-38.81836 0,-23.71216 12.1765,-38.72681 12.1766,-15.1062 31.128,-15.1062 10.6201,0 18.7683,4.30298 8.2397,4.21142 15.0146,13.18359 z m -21.6064,66.37574 q 10.5286,0 16.0217,-7.69043 5.5847,-7.69043 5.5847,-22.33887 0,-14.64844 -5.5847,-22.33887 -5.4931,-7.69043 -16.0217,-7.69043 -10.437,0 -16.0217,7.69043 -5.4932,7.69043 -5.4932,22.33887 0,14.64844 5.4932,22.33887 5.5847,7.69043 16.0217,7.69043 z"
         style=""
         id="path4148" />
      <path
         d="m 1381.2278,602.77026 0,9.33838 -76.6296,0 q 1.1902,11.53564 8.3313,17.30347 7.1411,5.76782 19.9585,5.76782 10.3454,0 21.1487,-3.02124 10.8947,-3.11279 22.3388,-9.33838 l 0,25.26856 q -11.6272,4.39453 -23.2544,6.59179 -11.6272,2.28882 -23.2544,2.28882 -27.832,0 -43.3044,-14.09912 -15.3809,-14.19067 -15.3809,-39.73389 0,-25.08545 15.1062,-39.45923 15.1978,-14.37378 41.7481,-14.37378 24.1699,0 38.6352,14.55688 14.5569,14.55689 14.5569,38.90992 z m -33.6914,-10.89478 q 0,-9.33838 -5.4932,-15.01465 -5.4016,-5.76782 -14.1906,-5.76782 -9.5215,0 -15.4724,5.40161 -5.951,5.31006 -7.4158,15.38086 l 42.572,0 z"
         style=""
         id="path4150" />
      <path
         d="m 1500.9788,568.80419 q 6.2256,-9.52148 14.74,-14.46533 8.606,-5.0354 18.8599,-5.0354 17.6697,0 26.9165,10.89477 9.2468,10.89478 9.2468,31.67725 l 0,62.43897 -32.959,0 0,-53.4668 q 0.092,-1.19018 0.092,-2.47192 0.091,-1.28174 0.091,-3.66211 0,-10.89478 -3.2043,-15.74707 -3.2044,-4.94385 -10.3455,-4.94385 -9.3383,0 -14.4653,7.69043 -5.0354,7.69043 -5.2185,22.24732 l 0,50.354 -32.959,0 0,-53.4668 q 0,-17.02881 -2.9297,-21.8811 -2.9297,-4.94385 -10.437,-4.94385 -9.4299,0 -14.5569,7.78198 -5.1269,7.69043 -5.1269,22.06421 l 0,50.44556 -32.959,0 0,-102.53907 32.959,0 0,15.01465 q 6.0424,-8.69751 13.8244,-13.09204 7.8736,-4.39453 17.3035,-4.39453 10.6201,0 18.7683,5.12695 8.1482,5.12696 12.3596,14.37378 z"
         style=""
         id="path4152" />
      <path
         d="m 1647.4632,608.17187 q -10.2539,0 -15.4724,3.47901 -5.127,3.479 -5.127,10.2539 0,6.22559 4.1199,9.79615 4.2114,3.479 11.6272,3.479 9.2468,0 15.564,-6.5918 6.3171,-6.68335 6.3171,-16.6626 l 0,-3.75366 -17.0288,0 z m 50.0794,-12.35962 0,58.5022 -33.0506,0 0,-15.19775 q -6.5918,9.33838 -14.8315,13.64136 -8.2398,4.21142 -20.0501,4.21142 -15.9302,0 -25.9094,-9.24682 -9.8877,-9.33838 -9.8877,-24.16993 0,-18.03589 12.3596,-26.45874 12.4512,-8.42285 39.0015,-8.42285 l 19.3176,0 0,-2.56348 q 0,-7.78198 -6.134,-11.35254 -6.1341,-3.66211 -19.1345,-3.66211 -10.5286,0 -19.5923,2.10571 -9.0638,2.10572 -16.8457,6.31714 l 0,-24.9939 q 10.5285,-2.56347 21.1486,-3.84521 10.6202,-1.37329 21.2403,-1.37329 27.7405,0 40.0085,10.98633 12.3597,10.89477 12.3597,35.52246 z"
         style=""
         id="path4154" />
      <path
         d="m 1804.3846,579.69897 q -4.303,-2.01416 -8.606,-2.92969 -4.2114,-1.00708 -8.5144,-1.00708 -12.6343,0 -19.5007,8.14819 -6.7749,8.05665 -6.7749,23.16285 l 0,47.24121 -32.7759,0 0,-102.53907 32.7759,0 0,16.84571 q 6.3171,-10.0708 14.4653,-14.64844 8.2398,-4.66919 19.6839,-4.66919 1.6479,0 3.5705,0.1831 1.9226,0.0916 5.5847,0.54932 l 0.092,29.66309 z"
         style=""
         id="path4156" />
      <path
         d="m 1820.8641,511.85839 32.7759,0 0,77.54517 37.7197,-37.62818 38.0859,0 -50.0793,47.05811 54.0161,55.48096 -39.7339,0 -40.0085,-42.75513 0,42.75513 -32.7759,0 0,-142.45606 z"
         style=""
         id="path4158" />
    </g>
    <g
       style="font-style:normal;font-variant:normal;font-weight:normal;font-stretch:normal;font-size:125.00001526px;line-height:125%;font-family:sans-serif;-inkscape-font-specification:'sans-serif, Normal';text-align:start;letter-spacing:0px;word-spacing:0px;writing-mode:lr-tb;text-anchor:start;fill:#000000;fill-opacity:1;stroke:none;stroke-width:1px;stroke-linecap:butt;stroke-linejoin:miter;stroke-opacity:1"
       id="text4140">
      <path
         d="m 879.68665,710.08233 13.24463,0 25.26855,37.47559 25.08546,-37.47559 13.24463,0 -32.22657,47.72949 0,43.396 -12.39014,0 0,-43.396 -32.22656,-47.72949 z"
         style=""
         id="path4161" />
      <path
         d="m 978.01429,740.72198 q -9.0332,0 -14.28222,7.08008 -5.24903,7.01904 -5.24903,19.28711 0,12.26807 5.18799,19.34815 5.24903,7.01904 14.34326,7.01904 8.97217,0 14.2212,-7.08008 5.24902,-7.08008 5.24902,-19.28711 0,-12.146 -5.24902,-19.22608 -5.24903,-7.14111 -14.2212,-7.14111 z m 0,-9.52149 q 14.64844,0 23.01031,9.52149 8.3618,9.52148 8.3618,26.36719 0,16.78467 -8.3618,26.36719 -8.36187,9.52148 -23.01031,9.52148 -14.70947,0 -23.07129,-9.52148 -8.30078,-9.58252 -8.30078,-26.36719 0,-16.84571 8.30078,-26.36719 8.36182,-9.52149 23.07129,-9.52149 z"
         style=""
         id="path4163" />
      <path
         d="m 1026.7814,774.23028 0,-41.38184 11.2305,0 0,40.9546 q 0,9.70459 3.7841,14.5874 3.7842,4.82178 11.3526,4.82178 9.0942,0 14.3432,-5.79834 5.3101,-5.79834 5.3101,-15.80811 l 0,-38.75733 11.2305,0 0,68.35938 -11.2305,0 0,-10.49804 q -4.0894,6.22558 -9.5215,9.27734 -5.3711,2.99072 -12.5122,2.99072 -11.7798,0 -17.8833,-7.32422 -6.1035,-7.32421 -6.1035,-21.42334 z m 28.2593,-43.02979 0,0 z"
         style=""
         id="path4165" />
      <path
         d="m 1118.3952,713.43926 0,19.40918 23.1323,0 0,8.72803 -23.1323,0 0,37.10938 q 0,8.36182 2.2583,10.74219 2.3193,2.38037 9.3384,2.38037 l 11.5356,0 0,9.39941 -11.5356,0 q -13.0005,0 -17.9444,-4.82177 -4.9438,-4.88282 -4.9438,-17.7002 l 0,-37.10938 -8.2398,0 0,-8.72803 8.2398,0 0,-19.40918 11.2915,0 z"
         style=""
         id="path4167" />
      <path
         d="m 1213.1828,759.94805 0,41.25977 -11.2305,0 0,-40.89355 q 0,-9.7046 -3.7842,-14.52637 -3.7842,-4.82178 -11.3525,-4.82178 -9.0943,0 -14.3433,5.79834 -5.249,5.79834 -5.249,15.80811 l 0,38.63525 -11.2915,0 0,-94.97071 11.2915,0 0,37.23145 q 4.0283,-6.16455 9.4605,-9.21631 5.4931,-3.05176 12.6342,-3.05176 11.7798,0 17.8223,7.32422 6.0425,7.26319 6.0425,21.42334 z"
         style=""
         id="path4169" />
      <path
         d="m 1275.9879,710.08233 18.3716,0 23.2544,62.01172 23.3765,-62.01172 18.3716,0 0,91.12549 -12.0239,0 0,-80.01709 -23.4986,62.5 -12.3901,0 -23.4986,-62.5 0,80.01709 -11.9629,0 0,-91.12549 z"
         style=""
         id="path4171" />
      <path
         d="m 1383.4099,732.84844 11.2304,0 0,68.35938 -11.2304,0 0,-68.35938 z m 0,-26.61133 11.2304,0 0,14.22119 -11.2304,0 0,-14.22119 z"
         style=""
         id="path4173" />
      <path
         d="m 1474.9016,759.94805 0,41.25977 -11.2305,0 0,-40.89355 q 0,-9.7046 -3.7842,-14.52637 -3.7842,-4.82178 -11.3525,-4.82178 -9.0943,0 -14.3433,5.79834 -5.249,5.79834 -5.249,15.80811 l 0,38.63525 -11.2915,0 0,-68.35938 11.2915,0 0,10.62012 q 4.0283,-6.16455 9.4604,-9.21631 5.4932,-3.05176 12.6343,-3.05176 11.7798,0 17.8223,7.32422 6.0425,7.26319 6.0425,21.42334 z"
         style=""
         id="path4175" />
      <path
         d="m 1497.4235,732.84844 11.2305,0 0,68.35938 -11.2305,0 0,-68.35938 z m 0,-26.61133 11.2305,0 0,14.22119 -11.2305,0 0,-14.22119 z"
         style=""
         id="path4177" />
      <path
         d="m 1575.6706,734.8626 0,10.62012 q -4.7607,-2.44141 -9.8877,-3.66211 -5.127,-1.2207 -10.6201,-1.2207 -8.3618,0 -12.5733,2.56347 -4.1503,2.56348 -4.1503,7.69043 0,3.90626 2.9907,6.16456 2.9907,2.19726 12.0239,4.21142 l 3.8452,0.85449 q 11.9629,2.56348 16.9678,7.26319 5.0659,4.63867 5.0659,13.00049 0,9.52148 -7.5684,15.07568 -7.5073,5.5542 -20.6909,5.5542 -5.4931,0 -11.4746,-1.09863 -5.9204,-1.0376 -12.5122,-3.17383 l 0,-11.59668 q 6.2256,3.23487 12.2681,4.88281 6.0425,1.58692 11.9629,1.58692 7.9345,0 12.207,-2.68555 4.2725,-2.74658 4.2725,-7.69043 0,-4.57764 -3.1128,-7.01904 -3.0518,-2.44141 -13.4888,-4.69971 l -3.9063,-0.91553 q -10.437,-2.19726 -15.0756,-6.71387 -4.6387,-4.57763 -4.6387,-12.5122 0,-9.64356 6.8359,-14.89258 6.836,-5.24903 19.4092,-5.24903 6.2256,0 11.7188,0.91553 5.4931,0.91553 10.1318,2.74658 z"
         style=""
         id="path4179" />
      <path
         d="m 1608.3854,713.43926 0,19.40918 23.1324,0 0,8.72803 -23.1324,0 0,37.10938 q 0,8.36182 2.2583,10.74219 2.3194,2.38037 9.3384,2.38037 l 11.5357,0 0,9.39941 -11.5357,0 q -13.0005,0 -17.9443,-4.82177 -4.9439,-4.88282 -4.9439,-17.7002 l 0,-37.10938 -8.2397,0 0,-8.72803 8.2397,0 0,-19.40918 11.2915,0 z"
         style=""
         id="path4181" />
      <path
         d="m 1685.9611,743.34649 q -1.8921,-1.09863 -4.1504,-1.58691 -2.1972,-0.54932 -4.8828,-0.54932 -9.5215,0 -14.6484,6.22559 -5.0659,6.16455 -5.0659,17.76123 l 0,36.01074 -11.2915,0 0,-68.35938 11.2915,0 0,10.62012 q 3.54,-6.22559 9.2163,-9.21631 5.6762,-3.05176 13.7939,-3.05176 1.1597,0 2.5635,0.18311 1.4038,0.12207 3.1128,0.42724 l 0.061,11.53565 z"
         style=""
         id="path4183" />
      <path
         d="m 1697.863,732.84844 11.2305,0 0,68.35938 -11.2305,0 0,-68.35938 z m 0,-26.61133 11.2305,0 0,14.22119 -11.2305,0 0,-14.22119 z"
         style=""
         id="path4185" />
      <path
         d="m 1791.0027,764.22052 0,5.49316 -51.6358,0 q 0.7325,11.59668 6.9581,17.7002 6.2866,6.04248 17.456,6.04248 6.4697,0 12.5122,-1.58692 6.1035,-1.58691 12.085,-4.76074 l 0,10.62012 q -6.0425,2.56348 -12.3902,3.90625 -6.3476,1.34277 -12.8784,1.34277 -16.3574,0 -25.9399,-9.52148 -9.5215,-9.52149 -9.5215,-25.75684 0,-16.78467 9.0332,-26.61133 9.0942,-9.8877 24.4751,-9.8877 13.7939,0 21.7896,8.91114 8.0566,8.85009 8.0566,24.10889 z m -11.2305,-3.2959 q -0.122,-9.21631 -5.188,-14.70948 -5.0048,-5.49316 -13.3056,-5.49316 -9.3994,0 -15.0757,5.31006 -5.6153,5.31006 -6.4697,14.95361 l 40.039,-0.061 z"
         style=""
         id="path4187" />
      <path
         d="m 1853.0144,734.8626 0,10.62012 q -4.7607,-2.44141 -9.8877,-3.66211 -5.1269,-1.2207 -10.6201,-1.2207 -8.3618,0 -12.5732,2.56347 -4.1504,2.56348 -4.1504,7.69043 0,3.90626 2.9907,6.16456 2.9907,2.19726 12.0239,4.21142 l 3.8452,0.85449 q 11.9629,2.56348 16.9678,7.26319 5.0659,4.63867 5.0659,13.00049 0,9.52148 -7.5683,15.07568 -7.5074,5.5542 -20.691,5.5542 -5.4931,0 -11.4746,-1.09863 -5.9204,-1.0376 -12.5122,-3.17383 l 0,-11.59668 q 6.2256,3.23487 12.2681,4.88281 6.0425,1.58692 11.9629,1.58692 7.9346,0 12.207,-2.68555 4.2725,-2.74658 4.2725,-7.69043 0,-4.57764 -3.1128,-7.01904 -3.0518,-2.44141 -13.4888,-4.69971 l -3.9062,-0.91553 q -10.4371,-2.19726 -15.0757,-6.71387 -4.6387,-4.57763 -4.6387,-12.5122 0,-9.64356 6.8359,-14.89258 6.836,-5.24903 19.4092,-5.24903 6.2256,0 11.7188,0.91553 5.4931,0.91553 10.1318,2.74658 z"
         style=""
         id="path4189" />
    </g>
    <rect
       style="opacity:0.96499999;fill:#aa1111;fill-opacity:1;stroke:none;stroke-width:25;stroke-linecap:round;stroke-linejoin:round;stroke-miterlimit:4;stroke-dasharray:none;stroke-opacity:1"
       id="rect4160"
       width="1000"
       height="12"
       x="868.18158"
       y="674.31458"
       ry="4.875" />
  </g>
</svg>
